<?xml version="1.0" standalone="no"?>
<!DOCTYPE svg PUBLIC "-//W3C//DTD SVG 20010904//EN"
 "http://www.w3.org/TR/2001/REC-SVG-20010904/DTD/svg10.dtd">
<svg version="1.0" xmlns="http://www.w3.org/2000/svg"
 width="1136.000000pt" height="1136.000000pt" viewBox="0 0 1136.000000 1136.000000"
 preserveAspectRatio="xMidYMid meet">
<metadata>
Created by potrace 1.14, written by Peter Selinger 2001-2017
</metadata>
<g transform="translate(0.000000,1136.000000) scale(0.100000,-0.100000)"
fill="#000000" stroke="none">
<path d="M8839 8998 c-1 -2 -3 -361 -4 -798 -1 -437 -3 -797 -4 -800 0 -3
-362 -5 -803 -5 l-803 0 -1 -400 c-1 -220 0 -407 3 -416 3 -14 79 -16 781 -17
427 0 786 -1 798 -1 l20 -1 0 -800 c-1 -527 2 -800 9 -801 57 -4 234 -1 243 5
7 4 12 4 12 -1 0 -10 211 -10 228 1 7 4 12 4 12 -1 0 -10 181 -10 198 1 7 4
12 4 12 -1 0 -9 191 -10 206 0 6 3 10 299 9 797 0 477 4 794 9 798 5 3 365 6
800 6 l791 1 0 415 0 415 -795 1 c-437 1 -797 2 -800 3 -3 1 -5 361 -5 801 l1
800 -458 0 c-252 0 -459 -1 -459 -2z"/>
<path d="M4 5201 l3 -2836 622 -3 621 -2 0 2173 c0 1196 3 2177 7 2180 6 6 47
-98 58 -148 2 -11 19 -63 38 -115 18 -52 33 -97 34 -100 1 -3 4 -12 7 -20 13
-40 30 -96 32 -105 7 -24 48 -143 61 -172 7 -17 16 -46 19 -65 4 -18 10 -37
14 -43 3 -5 12 -30 19 -55 7 -25 17 -54 21 -65 12 -28 241 -722 245 -743 2 -9
15 -48 30 -86 14 -39 27 -79 30 -90 4 -17 54 -169 159 -481 2 -5 5 -14 6 -20
2 -5 14 -41 27 -80 14 -38 27 -77 29 -85 5 -23 184 -562 194 -585 5 -11 23
-67 41 -125 18 -58 35 -109 39 -115 4 -5 10 -25 14 -43 3 -19 12 -48 20 -65
11 -28 208 -619 212 -639 1 -5 2 -9 3 -10 1 -2 23 -68 49 -148 l48 -145 477
-3 c458 -2 477 -1 477 16 0 10 3 22 8 26 4 4 7 11 7 14 1 17 59 178 68 189 5
7 7 13 4 13 -4 0 5 29 18 65 14 36 21 65 17 65 -4 0 -2 4 3 8 8 5 89 232 90
252 0 3 3 10 7 15 3 6 17 46 31 90 14 44 49 145 77 225 28 80 53 152 55 160 4
15 153 453 156 458 1 1 2 5 4 10 1 4 4 14 8 22 3 8 17 49 31 90 14 41 70 208
126 370 55 162 114 333 130 380 90 265 231 677 237 690 3 8 7 20 8 25 2 6 26
78 54 160 29 83 81 238 117 345 36 107 70 204 75 215 5 11 23 63 39 115 17 52
34 102 37 110 3 8 7 17 8 20 1 3 4 12 8 20 3 8 17 52 32 97 27 86 39 104 49
78 3 -8 2 -15 -3 -15 -6 0 -7 -34 -1 -50 1 -3 2 -9 0 -15 -2 -13 -1 -103 3
-142 2 -18 0 -33 -4 -33 -4 0 -4 -12 0 -26 3 -14 4 -52 1 -85 -3 -32 -2 -66 2
-73 5 -8 4 -17 -2 -21 -6 -4 -7 -11 -4 -17 9 -14 8 -124 -1 -138 -3 -5 -1 -10
5 -10 6 0 9 -4 6 -8 -6 -10 -8 -105 -3 -149 2 -18 -1 -33 -6 -33 -4 0 -5 -5
-1 -11 3 -6 6 -41 4 -78 -2 -75 -2 -74 3 -118 2 -18 -1 -33 -6 -33 -4 0 -5 -5
-1 -11 3 -6 6 -41 4 -78 -2 -75 -2 -74 3 -118 2 -18 -1 -33 -6 -33 -4 0 -5 -5
-1 -11 3 -6 6 -41 4 -78 -2 -75 -2 -74 3 -118 2 -18 -1 -33 -6 -33 -4 0 -5 -5
-1 -11 3 -6 6 -41 4 -78 -2 -75 -2 -74 3 -118 2 -18 -1 -33 -6 -33 -4 0 -5 -5
-1 -11 3 -6 6 -41 4 -78 -2 -75 -2 -74 3 -118 2 -18 -1 -33 -6 -33 -4 0 -5 -5
-1 -11 3 -6 6 -41 4 -78 -2 -75 -2 -74 3 -118 2 -18 -1 -33 -6 -33 -4 0 -5 -5
-1 -11 3 -6 6 -41 4 -78 -2 -75 -2 -74 3 -118 2 -18 -1 -33 -6 -33 -4 0 -5 -5
-1 -11 3 -6 6 -41 4 -78 -2 -75 -2 -74 3 -118 2 -18 -1 -33 -6 -33 -4 0 -5 -5
-1 -11 3 -6 6 -41 4 -78 -2 -75 -2 -74 3 -118 2 -18 -1 -33 -6 -33 -4 0 -5 -5
-1 -11 3 -6 6 -41 4 -78 -2 -75 -2 -74 3 -118 2 -18 -1 -33 -6 -33 -4 0 -5 -5
-1 -11 3 -6 6 -41 4 -78 -2 -75 -2 -74 3 -118 2 -18 -1 -33 -6 -33 -4 0 -5 -5
-1 -11 3 -6 6 -41 4 -78 -2 -75 -2 -74 3 -118 2 -18 -1 -33 -6 -33 -4 0 -5 -5
-1 -11 3 -6 6 -41 4 -78 -2 -75 -2 -74 3 -119 2 -17 -1 -32 -6 -32 -4 0 -5 -5
-1 -11 3 -6 6 -41 4 -78 -2 -75 -2 -74 3 -118 2 -18 0 -33 -4 -33 -4 0 -4 -12
0 -26 3 -14 4 -52 1 -85 l-6 -59 628 0 628 0 0 2838 0 2839 -945 0 c-607 0
-945 -4 -945 -10 0 -9 -85 -253 -182 -522 -22 -60 -43 -121 -48 -135 -5 -14
-32 -90 -60 -170 -28 -80 -56 -158 -62 -175 -5 -16 -13 -39 -18 -50 -4 -11
-15 -40 -23 -65 -12 -40 -124 -354 -228 -645 -49 -135 -51 -140 -49 -140 0 0
-11 -31 -26 -70 -14 -38 -27 -74 -29 -80 -1 -5 -5 -17 -8 -25 -18 -49 -42
-116 -42 -120 -1 -3 -11 -32 -24 -65 -12 -33 -24 -67 -26 -75 -3 -15 -29 -88
-45 -125 -5 -11 -16 -42 -25 -70 -9 -27 -18 -57 -22 -65 -3 -8 -7 -19 -9 -25
-6 -22 -145 -411 -153 -430 -5 -11 -20 -49 -32 -85 -12 -36 -31 -90 -41 -120
-11 -30 -21 -59 -23 -65 -40 -126 -132 -367 -140 -367 -5 0 -27 49 -48 109
-21 59 -45 126 -53 148 -8 22 -17 47 -19 55 -3 13 -69 201 -88 250 -3 8 -15
44 -27 80 -12 36 -26 74 -30 85 -11 26 -55 150 -85 240 -13 39 -40 115 -60
170 -20 55 -38 107 -40 115 -4 15 -60 173 -72 200 -3 8 -7 22 -9 30 -2 8 -7
23 -13 35 -5 11 -21 54 -35 95 -34 105 -96 281 -106 305 -5 11 -27 74 -50 140
-22 66 -45 128 -50 137 -6 10 -10 26 -10 36 0 10 -4 22 -8 27 -5 6 -23 55 -41
110 -17 55 -36 109 -41 120 -6 11 -24 61 -41 110 -16 50 -43 126 -59 170 -16
44 -49 141 -75 215 -26 74 -49 142 -52 150 -4 8 -7 17 -8 20 -1 3 -4 12 -8 20
-6 16 -63 179 -77 220 -4 14 -12 34 -16 45 -4 11 -8 22 -9 25 -1 3 -4 12 -7
20 -28 76 -42 116 -43 120 0 3 -8 26 -18 51 l-17 46 -945 0 -944 0 3 -2836z"/>
</g>
</svg>
