<svg id="ei7Ius4d3Lo1" xmlns="http://www.w3.org/2000/svg" xmlns:xlink="http://www.w3.org/1999/xlink" viewBox="0 0 202.88 41.4" shape-rendering="geometricPrecision" text-rendering="geometricPrecision"><defs><linearGradient id="ei7Ius4d3Lo4-fill" x1="1.2" y1="38" x2="193.07613" y2="38" spreadMethod="pad" gradientUnits="userSpaceOnUse" gradientTransform="translate(0 0)"><stop id="ei7Ius4d3Lo4-fill-0" offset="0%" stop-color="#90cea1"/><stop id="ei7Ius4d3Lo4-fill-1" offset="56%" stop-color="#3cbec9"/><stop id="ei7Ius4d3Lo4-fill-2" offset="100%" stop-color="#00b3e5"/></linearGradient></defs><g><g><path d="M49.06,66.7v0c-.007965-4.691571,1.850173-9.193716,5.164805-12.513975s7.813617-5.186032,12.505195-5.186025h-.1c4.691578-.000007,9.190564,1.865766,12.505195,5.186025s5.17277,7.822404,5.164805,12.513975v0c0,9.758872-7.911128,17.67-17.67,17.67h.1c-9.758872,0-17.67-7.911128-17.67-17.67Zm52.59,17.67h6.25L122.5,49h-8.35l-8.9,23.2h-.1L96.4,49h-8.9Zm28.45,0h7.8v-35.37h-7.8Zm17.2,0h24.95v-7.17h-17.15v-7.2h15.35v-7.2h-15.35v-6.6h16.25v-7.2h-24ZM188.32613,53h-10.05v5.2h10v10h5.8v-10h10v-5.2h-10v-10h-5.75ZM1.25,84.4h7.75v-27.15h.1l9,27.15h5.9l9.3-27.15h.1v27.15h7.8v-35.4h-11.75l-8.2,23.1h-.1L13,49h-11.8Z" transform="translate(-1.2-43)" fill="url(#ei7Ius4d3Lo4-fill)"/></g></g></svg>
